<svg width="204.000000" height="204.000000" viewBox="0 0 204 204" fill="none" xmlns="http://www.w3.org/2000/svg" xmlns:xlink="http://www.w3.org/1999/xlink">
	<desc>
			Created with Pixso.
	</desc>
	<defs>
		<clipPath id="clip1_1134">
			<rect id="Иконка" rx="-0.500000" width="139.000000" height="76.000000" transform="translate(32.500000 58.500000)" fill="white" fill-opacity="0"/>
		</clipPath>
	</defs>
	<circle id="Ellipse 70" cx="102.000000" cy="102.000000" r="102.000000" fill="#FFFFFF" fill-opacity="1.000000"/>
	<rect id="Иконка" rx="-0.500000" width="139.000000" height="76.000000" transform="translate(32.500000 58.500000)" fill="#FFFFFF" fill-opacity="0"/>
	<g clip-path="url(#clip1_1134)">
		<path id="Vector" d="M31.97 112.78C31.63 113.3 32.08 113.48 32.97 113.45C34.85 113.41 38.88 112.31 41.43 111.29C40.96 111.73 37.53 114.82 33.56 115.53C30.33 116.11 32.71 118.31 32.71 118.31C33.47 119.43 34.83 119.73 36.12 119.71C37.54 119.71 38.88 119.31 39.24 119.19C37.54 121.49 36.98 123.59 38.41 123.47C39.13 123.45 40.41 122.82 42.37 121.26C41.43 123.45 42.12 124.83 43.31 124.91C44.2 125 45.4 124.36 46.43 122.77C46.48 124.28 47.25 125.29 48.3 125.31C48.91 125.35 49.63 125.05 50.36 124.3C51.19 125.45 51.9 125.84 52.51 125.8C52.59 125.8 52.68 125.79 52.76 125.77C52.39 128.04 51.92 129.78 51.24 131.19C50.96 130.46 50.54 129.68 49.88 128.99C49.88 128.99 50.37 130.75 50.58 132.34C50.55 132.37 50.53 132.41 50.5 132.44C50.23 131.44 49.5 130.05 47.59 128.97C47.59 128.97 49.9 130.7 49.59 133.65L49.49 133.67C49.2 133.16 48.04 131.49 45.55 131.41C45.55 131.41 48.69 132.8 48.22 135.2C48.22 135.2 51.02 135.6 53.73 134.79C55.18 134.52 56.54 134.2 57.11 134.06C58.84 133.65 66.89 135.78 63.76 134.12C60.89 132.59 60.3 128.29 60 123.04C61.91 124.67 63.9 125.51 65.08 125.45C66.37 125.43 66.76 124.4 65.17 122.26C66.4 123.04 68.09 124.2 69.24 124.24C69.95 124.29 70.47 123.93 70.58 122.84C72.36 124.09 73.61 124.74 74.24 124.68C75.38 124.68 74.8 122.71 72.06 118.21C74.69 119.96 76.92 120.45 78.61 120.35C81.52 120.21 82.86 118.29 81.92 117.88C79.21 117.25 75.27 115.49 72.95 112.59C74.12 113.62 75.43 114.28 76.21 114.29C77.41 114.36 77.47 113.02 74.14 109.37C76.18 111.22 78.09 111.82 79.54 111.79C79.66 111.79 79.76 111.78 79.87 111.77C79.9 111.77 79.93 111.77 79.95 111.76C81.39 111.62 82.29 110.5 82.27 110.52C82.66 109.85 82.01 109.49 81.43 109.27C78.12 107.7 75.3 104.88 73.18 102.2L73.28 102.23C72.06 100.69 71.06 99.2 70.34 98.02C71.86 99.14 73.07 99.61 73.73 99.64C74.56 99.71 74.67 99.17 73.71 98.36C71.32 96.44 69.37 92.62 68.18 89.82C68.66 90.14 69.07 90.31 69.34 90.29C70.1 90.34 69.96 89.11 67.88 85.88C69.45 87.29 70.8 87.97 71.51 87.91C72.11 87.9 72.33 87.44 71.93 86.53C71.66 85.92 71.22 85.4 70.73 84.94C65.55 80.12 64.91 74.56 64.88 74.22C65.64 75.12 66.54 75.78 66.69 75.82C67.06 75.96 66.91 75.26 65.8 73.33C67.4 74.57 68.71 75.11 69.18 75.04C69.64 75.04 69.52 74.6 68.47 73.78C67.73 73.24 66.3 71.65 66.31 71.7C63.39 68.11 60.7 62.19 59.54 59.46C59.56 59.46 59.59 59.44 59.61 59.45C59.21 58.55 58.99 58 58.99 58C58.99 58.04 58.97 58.08 58.96 58.12C58.93 58.04 58.91 58 58.91 58C58.83 58.38 56.26 69.92 50.46 74.39C49.08 75.45 49.41 76.06 50.37 76C51.06 75.98 52.14 75.59 53.15 74.76C52.63 75.89 52.81 75.86 52.46 76.95C50.85 80.94 48.38 85.75 46.71 86.88C45.66 87.59 45.63 88.1 46.26 88.12C46.28 88.12 46.31 88.12 46.34 88.12C46.37 88.12 46.41 88.12 46.45 88.12C46.99 88.09 47.91 87.76 49.06 87.01C48.39 89.15 46.54 94.01 42.85 96.87C40.43 98.74 41.16 99.5 42.73 99.44C42.92 99.43 43.12 99.41 43.33 99.38C42.23 101.9 39.49 106.28 33.45 107.64C31.38 108.17 32.56 109.94 35.28 109.78C35.84 109.76 36.47 109.65 37.15 109.43C36.28 109.81 32.91 111.35 31.97 112.78L31.97 112.78Z" fill="#447C2A" fill-opacity="1.000000" fill-rule="nonzero"/>
		<path id="Vector" d="M172.06 112.78C172.4 113.3 171.95 113.48 171.06 113.45C169.18 113.41 165.15 112.31 162.6 111.29C163.07 111.73 166.5 114.82 170.47 115.53C173.7 116.11 171.32 118.31 171.32 118.31C170.56 119.43 169.2 119.73 167.91 119.71C166.49 119.71 165.15 119.31 164.79 119.19C166.49 121.49 167.05 123.59 165.62 123.47C164.9 123.45 163.62 122.82 161.66 121.26C162.6 123.45 161.91 124.83 160.72 124.91C159.83 125 158.63 124.36 157.6 122.77C157.55 124.28 156.78 125.29 155.73 125.31C155.12 125.35 154.4 125.05 153.67 124.3C152.84 125.45 152.13 125.84 151.52 125.8C151.44 125.8 151.35 125.79 151.27 125.77C151.64 128.04 152.11 129.78 152.79 131.19C153.07 130.46 153.48 129.68 154.15 128.99C154.15 128.99 153.66 130.75 153.45 132.34C153.48 132.37 153.5 132.41 153.53 132.44C153.8 131.44 154.53 130.05 156.44 128.97C156.44 128.97 154.13 130.7 154.44 133.65L154.54 133.67C154.83 133.16 155.99 131.49 158.48 131.41C158.48 131.41 155.34 132.8 155.81 135.2C155.81 135.2 153.01 135.6 150.3 134.79C148.85 134.52 147.49 134.2 146.92 134.06C145.19 133.65 137.14 135.78 140.27 134.12C143.14 132.59 143.73 128.29 144.03 123.04C142.12 124.67 140.13 125.51 138.95 125.45C137.66 125.43 137.26 124.4 138.86 122.26C137.63 123.04 135.94 124.2 134.79 124.24C134.08 124.29 133.56 123.93 133.45 122.84C131.67 124.09 130.42 124.74 129.79 124.68C128.65 124.68 129.23 122.71 131.97 118.21C129.34 119.96 127.11 120.45 125.42 120.35C122.51 120.21 121.17 118.29 122.11 117.88C124.82 117.25 128.76 115.49 131.08 112.59C129.91 113.62 128.6 114.28 127.82 114.29C126.62 114.36 126.56 113.02 129.89 109.37C127.85 111.22 125.94 111.82 124.49 111.79C124.37 111.79 124.27 111.78 124.16 111.77C124.13 111.77 124.1 111.77 124.08 111.76C122.64 111.62 121.74 110.5 121.76 110.52C121.37 109.85 122.02 109.49 122.6 109.27C125.91 107.7 128.73 104.88 130.85 102.2L130.75 102.23C131.97 100.69 132.97 99.2 133.69 98.02C132.17 99.14 130.96 99.61 130.3 99.64C129.47 99.71 129.36 99.17 130.32 98.36C132.71 96.44 134.66 92.62 135.85 89.82C135.37 90.14 134.96 90.31 134.69 90.29C133.93 90.34 134.07 89.11 136.15 85.88C134.58 87.29 133.23 87.97 132.52 87.91C131.92 87.9 131.7 87.44 132.1 86.53C132.37 85.92 132.81 85.4 133.3 84.94C138.48 80.12 139.12 74.56 139.15 74.22C138.39 75.12 137.49 75.78 137.34 75.82C136.97 75.96 137.12 75.26 138.23 73.33C136.63 74.57 135.32 75.11 134.85 75.04C134.39 75.04 134.51 74.6 135.56 73.78C136.3 73.24 137.73 71.65 137.72 71.7C140.64 68.11 143.33 62.19 144.49 59.46C144.47 59.46 144.44 59.44 144.42 59.45C144.8 58.55 145.02 58 145.02 58C145.02 58.04 145.04 58.08 145.05 58.12C145.1 58.04 145.12 58 145.12 58C145.2 58.38 147.77 69.92 153.57 74.39C154.95 75.45 154.62 76.06 153.66 76C152.97 75.98 151.89 75.59 150.88 74.76C151.4 75.89 151.22 75.86 151.57 76.95C153.18 80.94 155.65 85.75 157.32 86.88C158.37 87.59 158.4 88.1 157.77 88.12C157.75 88.12 157.72 88.12 157.69 88.12C157.66 88.12 157.62 88.12 157.58 88.12C157.04 88.09 156.12 87.76 154.97 87.01C155.64 89.15 157.49 94.01 161.18 96.87C163.6 98.74 162.87 99.5 161.3 99.44C161.11 99.43 160.91 99.41 160.7 99.38C161.8 101.9 164.54 106.28 170.58 107.64C172.65 108.17 171.47 109.94 168.75 109.78C168.19 109.76 167.56 109.65 166.88 109.43C167.75 109.81 171.12 111.35 172.06 112.78L172.06 112.78Z" fill="#447C2A" fill-opacity="1.000000" fill-rule="nonzero"/>
		<path id="Vector" d="M141.5 102.36L101.59 77.64L44.79 119.64L49.85 119.64L101.59 81.48L140.09 105.33L141.5 102.36Z" fill="#447C2A" fill-opacity="1.000000" fill-rule="nonzero"/>
		<path id="Vector" d="M96.15 98.64L100.43 98.64L100.43 106.2L96.15 106.2L96.15 98.64Z" fill="#447C2A" fill-opacity="1.000000" fill-rule="evenodd"/>
		<path id="Vector" d="M96.15 108.16L100.43 108.16L100.43 115.73L96.15 115.73L96.15 108.16Z" fill="#447C2A" fill-opacity="1.000000" fill-rule="evenodd"/>
		<path id="Vector" d="M102.4 98.64L106.68 98.64L106.68 106.2L102.4 106.2L102.4 98.64Z" fill="#447C2A" fill-opacity="1.000000" fill-rule="evenodd"/>
		<path id="Vector" d="M102.4 108.16L106.68 108.16L106.68 115.73L102.4 115.73L102.4 108.16Z" fill="#447C2A" fill-opacity="1.000000" fill-rule="evenodd"/>
		<path id="Vector" d="M141.18 108.77L140.57 109.75L101.63 85.56L55.56 119.64L53.66 119.64L101.56 84.17L141.18 108.77Z" fill="#447C2A" fill-opacity="1.000000" fill-rule="nonzero"/>
	</g>
</svg>
